<?xml version="1.0" encoding="utf-8"?>
<!-- Generator: Adobe Illustrator 26.0.1, SVG Export Plug-In . SVG Version: 6.00 Build 0)  -->
<svg version="1.1" id="Laag_1" xmlns="http://www.w3.org/2000/svg" xmlns:xlink="http://www.w3.org/1999/xlink" x="0px" y="0px"
	 width="238px" height="50px" viewBox="0 0 238 50" style="enable-background:new 0 0 238 50;" xml:space="preserve">
<style type="text/css">
	.st0{fill:#3667C1;}
</style>
<g>
	<path class="st0" d="M34.1,15.7c0.8-0.8,2-1.2,3.3-1.2c1.4,0,2.4,0.4,3.3,1.2c0.8,0.8,1.3,1.9,1.3,3.3c0,0.3,0.1,0.4,0.4,0.4h0.1
		l4.5-0.3c0.3-0.1,0.5-0.2,0.5-0.4c0-1.8-0.4-3.3-1.3-4.7c-0.8-1.4-2-2.4-3.5-3.1c-1.5-0.7-3.2-1.1-5.2-1.1c-2,0-3.8,0.4-5.3,1.2
		c-1.5,0.8-2.7,1.9-3.5,3.3c-0.8,1.4-1.2,3-1.2,4.9V28c0,1.8,0.4,3.5,1.2,4.9c0.8,1.4,2,2.5,3.5,3.3c1.5,0.8,3.3,1.2,5.3,1.2
		c2,0,3.7-0.4,5.2-1.1c1.5-0.7,2.7-1.8,3.5-3.2c0.8-1.4,1.3-2.9,1.3-4.7c0-0.1-0.1-0.2-0.2-0.3c-0.1-0.1-0.2-0.1-0.3-0.1l-4.5-0.2
		c-0.3,0-0.5,0.1-0.5,0.4c0,1.3-0.4,2.4-1.3,3.2c-0.8,0.8-1.9,1.2-3.3,1.2c-1.4,0-2.5-0.4-3.3-1.2c-0.8-0.8-1.2-1.9-1.2-3.2V19
		C32.9,17.6,33.3,16.6,34.1,15.7z"/>
	<path class="st0" d="M24.1,23.4H11.5c-0.1,0-0.2,0.1-0.3,0.2c-0.1,0.1-0.1,0.2-0.1,0.3v3.7c0,0.1,0,0.2,0.1,0.3
		c0.1,0.1,0.2,0.1,0.3,0.1h12.6c0.1,0,0.2,0,0.3-0.1c0.1-0.1,0.2-0.2,0.2-0.3v-3.7c0-0.1-0.1-0.2-0.2-0.3
		C24.3,23.4,24.2,23.4,24.1,23.4z"/>
	<path class="st0" d="M7.2,17.3H2.7c-0.1,0-0.2,0.1-0.3,0.2c-0.1,0.1-0.1,0.2-0.1,0.3v18.9c0,0.1,0,0.2,0.1,0.3
		c0.1,0.1,0.2,0.1,0.3,0.1h4.5c0.1,0,0.2,0,0.3-0.1c0.1-0.1,0.2-0.2,0.2-0.3V17.7c0-0.1-0.1-0.2-0.2-0.3C7.5,17.3,7.4,17.3,7.2,17.3
		z"/>
	<path class="st0" d="M5,9C4.1,9,3.4,9.3,2.8,9.9C2.3,10.4,2,11.1,2,12c0,0.9,0.3,1.6,0.8,2.2c0.6,0.6,1.3,0.8,2.2,0.8
		c0.9,0,1.6-0.3,2.2-0.8c0.6-0.6,0.9-1.3,0.9-2.2c0-0.9-0.3-1.6-0.8-2.2C6.7,9.3,5.9,9,5,9z"/>
	<path class="st0" d="M65.1,18.6c-1.5-1.1-3.3-1.6-5.4-1.6c-2.2,0-4,0.5-5.5,1.6c-1.5,1.1-2.6,2.6-3.2,4.5c-0.4,1.2-0.5,2.6-0.5,4.1
		c0,1.4,0.2,2.7,0.5,3.9c0.6,1.9,1.6,3.5,3.2,4.6c1.5,1.1,3.4,1.7,5.5,1.7c2.2,0,4-0.6,5.5-1.7c1.5-1.2,2.6-2.7,3.2-4.7
		c0.4-1.2,0.5-2.5,0.5-3.9c0-1.4-0.2-2.8-0.6-4C67.7,21.1,66.6,19.7,65.1,18.6z M63.1,29.8c-0.3,0.9-0.7,1.6-1.3,2.1
		c-0.6,0.5-1.3,0.8-2.2,0.8c-0.9,0-1.6-0.3-2.2-0.8c-0.6-0.5-1-1.2-1.3-2.1C56,29.2,56,28.3,56,27.1c0-1.2,0.1-2.1,0.3-2.7
		c0.3-0.9,0.7-1.6,1.2-2c0.6-0.5,1.3-0.7,2.2-0.7c0.8,0,1.6,0.2,2.2,0.7c0.6,0.5,1,1.2,1.3,2c0.2,0.7,0.3,1.7,0.3,2.7
		C63.5,28.1,63.4,29,63.1,29.8z"/>
	<path class="st0" d="M168.4,23.3c-1-0.5-2.4-1.1-4.3-1.8c-1.6-0.6-2.9-1.1-3.7-1.4c-0.8-0.4-1.4-0.8-1.8-1.2
		c-0.4-0.4-0.6-1-0.6-1.6c0-0.9,0.3-1.6,1-2.1c0.7-0.5,1.6-0.8,2.8-0.8c1.5,0,2.7,0.4,3.6,1.2c0.9,0.7,1.3,1.7,1.3,2.7v0.3
		c0,0.1,0,0.2,0.1,0.3c0.1,0.1,0.2,0.1,0.3,0.1h4.4c0.1,0,0.2,0,0.3-0.1c0.1-0.1,0.2-0.2,0.2-0.3v-0.6c0-1.6-0.4-3.1-1.3-4.3
		c-0.8-1.3-2-2.2-3.6-2.9c-1.5-0.7-3.2-1-5.2-1c-1.8,0-3.5,0.3-4.9,0.9c-1.4,0.6-2.5,1.5-3.3,2.7c-0.8,1.2-1.2,2.5-1.2,4
		c0,1.6,0.4,2.9,1.2,4c0.8,1.1,1.8,1.9,3,2.5c1.2,0.6,2.7,1.2,4.4,1.8c1.5,0.6,2.7,1,3.3,1.3c0.7,0.3,1.3,0.7,1.7,1.1
		c0.4,0.4,0.6,0.9,0.6,1.5c0,0.8-0.3,1.6-1,2.2c-0.7,0.6-1.7,0.8-3,0.8c-1.6,0-2.9-0.3-3.8-1c-0.9-0.7-1.4-1.6-1.4-2.6v-0.6
		c0-0.1-0.1-0.2-0.2-0.3c-0.1-0.1-0.2-0.2-0.3-0.2h-4.4c-0.1,0-0.2,0.1-0.3,0.2c-0.1,0.1-0.1,0.2-0.1,0.3v0.8c0,1.6,0.4,3,1.2,4.3
		c0.8,1.2,2,2.1,3.6,2.8c1.5,0.6,3.3,1,5.4,1c3,0,5.4-0.7,7.2-2.1c1.8-1.4,2.7-3.3,2.7-5.7c0-1.6-0.4-2.9-1.3-3.9
		C170.4,24.6,169.5,23.9,168.4,23.3z"/>
	<path class="st0" d="M181.9,14.8h12.6c0.1,0,0.2,0,0.3-0.1c0.1-0.1,0.2-0.2,0.2-0.3v-3.7c0-0.1-0.1-0.2-0.2-0.3
		c-0.1-0.1-0.2-0.2-0.3-0.2h-17.8c-0.1,0-0.2,0.1-0.3,0.2c-0.1,0.1-0.1,0.2-0.1,0.3v26c0,0.1,0,0.2,0.1,0.3c0.1,0.1,0.2,0.1,0.3,0.1
		h17.8c0.1,0,0.2,0,0.3-0.1c0.1-0.1,0.2-0.2,0.2-0.3v-3.7c0-0.1-0.1-0.2-0.2-0.3c-0.1-0.1-0.2-0.2-0.3-0.2h-12.6
		c-0.1,0-0.2-0.1-0.2-0.2V26c0-0.1,0.1-0.2,0.2-0.2h8.3c0.1,0,0.2,0,0.3-0.1c0.1-0.1,0.2-0.2,0.2-0.3v-3.7c0-0.1-0.1-0.2-0.2-0.3
		c-0.1-0.1-0.2-0.2-0.3-0.2h-8.3c-0.1,0-0.2-0.1-0.2-0.2v-6C181.7,14.9,181.8,14.8,181.9,14.8z"/>
	<path class="st0" d="M143.9,13.2l-2.7-0.7v-2.2c0-0.5-0.3-0.9-0.7-1l-3.1-0.9V6.2c0-1.3-0.8-2.4-1.9-2.9
		c-6.3-2.8-12.6-2.3-18.3,1.4c-2.8,1.8-4.9,4-6.5,6.1c-2.8-3.6-6.5-6.2-11-7.5c-5.2-1.5-10.4-1-13.5-0.1c-1.4,0.4-2.3,1.7-2.3,3.1
		v2.3l-2.6,0.9c-0.4,0.1-0.7,0.5-0.7,1v2.3l-2.9,1.4C77.2,14.2,77,14.6,77,15v32c0,0.3,0.2,0.7,0.5,0.9c0.2,0.1,0.4,0.2,0.6,0.2
		c0.1,0,0.3,0,0.4-0.1c12.5-5.3,22.6-5.3,31-0.1c0,0,0.7,0.6,1.7-0.1c3.7-2.3,13.6-8.3,32.1-0.7c0.3,0.1,0.7,0.1,1-0.1
		c0.3-0.2,0.5-0.5,0.5-0.9V14.2C144.7,13.8,144.3,13.4,143.9,13.2z M99.2,42.1c-6-0.7-12.8,0.4-20.1,3.3V15.6l1.4-0.7v24.8
		c0,0.3,0.1,0.6,0.4,0.8c0.2,0.2,0.6,0.3,0.9,0.2c8.8-1.9,15.5-0.4,20.2,1.8C101.1,42.4,100.2,42.2,99.2,42.1z M89.6,37.8
		c-2.2,0-4.5,0.2-7.1,0.7V11.1l1.3-0.4v22.5c0,1.8,1.4,3.2,3.2,3.2c1.2,0,2.2-0.7,2.8-1.6c6,0.5,10.7,3.5,13.9,6.4
		C100.2,39.3,95.5,37.8,89.6,37.8z M109.3,44.2c-4-5.3-10.6-10.5-19.1-11.4V8.8c2.1-0.3,4.9-0.2,7.6,0.6c4.5,1.3,7.7,4.2,9.7,8.6
		c0.3,0.8,1,1.4,1.8,1.7V44.2z M111.3,44V19.8c0.8-0.2,1.5-0.8,1.9-1.6c0.7-1.2,3.2-5.5,7.3-8.2c3.3-2.1,6.7-2.7,10.3-1.6v24.3
		c-4.3,0.4-8.5,1.9-12.3,4.4C115.3,39.4,112.9,42,111.3,44z M119.8,38.9c3.6-2.4,7.5-3.8,11.6-4.1c0.5,1,1.6,1.6,2.8,1.6
		c1.8,0,3.2-1.4,3.2-3.2V10.6l1.8,0.5v27.4c-10-1.9-17.5,0.3-22.5,2.9C117.5,40.5,118.6,39.7,119.8,38.9z M142.6,44.7
		c-5.8-2.2-11.2-3.3-16.2-3.3c-1.6,0-3.1,0.1-4.6,0.3c-0.6,0.1-1.1,0.2-1.6,0.3c8.3-3.2,16.7-1.9,19.8-1.2c0.3,0.1,0.6,0,0.9-0.2
		c0.2-0.2,0.4-0.5,0.4-0.8V14.6l1.4,0.4V44.7z"/>
</g>
</svg>
